<svg xmlns="http://www.w3.org/2000/svg" xmlns:xlink="http://www.w3.org/1999/xlink" width="145px" height="37px" viewBox="0 0 145 37" version="1.1">
<g id="surface1">
<path style=" stroke:none;fill-rule:evenodd;fill:#0d914f;fill-opacity:1;" d="M 15.65625 0.152344 C 15.199219 0.222656 14.542969 0.347656 14.199219 0.4375 L 13.582031 0.589844 L 13.535156 11.125 C 13.492188 20.660156 13.472656 21.695312 13.339844 22.144531 C 12.722656 24.160156 11.292969 25.445312 9.355469 25.722656 C 6.703125 26.117188 4.441406 24.480469 3.78125 21.695312 C 3.613281 20.992188 3.460938 19.421875 3.460938 18.394531 C 3.460938 16.9375 3.769531 15.027344 4.222656 13.617188 C 4.515625 12.714844 5.273438 11.082031 5.699219 10.445312 L 6.015625 9.964844 L 6.042969 15.8125 L 6.070312 21.652344 L 6.351562 22.242188 C 6.925781 23.429688 7.96875 24.082031 9.160156 23.992188 C 9.789062 23.945312 10.53125 23.714844 10.53125 23.554688 C 10.53125 23.507812 10.417969 23.375 10.285156 23.257812 C 10.144531 23.144531 9.914062 22.792969 9.773438 22.480469 L 9.515625 21.917969 L 9.488281 12.070312 C 9.480469 6.660156 9.453125 2.234375 9.425781 2.234375 C 9.339844 2.234375 7.792969 3.277344 7.128906 3.777344 C 5.601562 4.945312 3.613281 7.167969 2.632812 8.8125 C 1.746094 10.304688 0.765625 12.742188 0.421875 14.285156 C -0.0117188 16.242188 -0.125 19.027344 0.148438 21.082031 C 0.617188 24.6875 2.234375 27.1875 4.929688 28.492188 C 6.023438 29.019531 6.835938 29.207031 8.207031 29.257812 C 10.425781 29.347656 12.050781 28.894531 13.582031 27.75 C 15.320312 26.4375 16.328125 24.820312 16.832031 22.5 C 17.007812 21.667969 17.019531 21.417969 17.042969 10.820312 L 17.078125 0 L 16.789062 0.0078125 C 16.628906 0.0195312 16.117188 0.0820312 15.65625 0.152344 Z M 15.65625 0.152344 "/>
<path style=" stroke:none;fill-rule:evenodd;fill:#0d914f;fill-opacity:1;" d="M 19.722656 4.019531 L 19.722656 8.035156 L 23.257812 8.035156 L 23.257812 6.160156 C 23.257812 4.582031 23.273438 4.285156 23.390625 4.285156 C 23.574219 4.285156 25.050781 4.957031 25.871094 5.417969 C 29.203125 7.292969 31.910156 10.875 32.835938 14.617188 C 33.226562 16.207031 33.289062 16.75 33.277344 18.617188 C 33.277344 20.195312 33.242188 20.535156 33.039062 21.535156 C 32.464844 24.296875 31.121094 26.875 29.257812 28.832031 C 27.648438 30.507812 25.742188 31.796875 23.726562 32.570312 L 23.257812 32.75 L 23.257812 29.195312 L 19.722656 29.195312 L 19.722656 36.992188 L 20.421875 36.929688 C 23.550781 36.667969 27.191406 35.144531 29.921875 32.964844 C 30.804688 32.257812 32.402344 30.625 33.039062 29.777344 C 35.355469 26.671875 36.53125 23.417969 36.820312 19.285156 C 36.917969 17.882812 36.601562 15.125 36.152344 13.480469 C 35.488281 11.070312 34.242188 8.644531 32.652344 6.679688 C 32.078125 5.964844 30.363281 4.277344 29.644531 3.722656 C 28.496094 2.839844 26.660156 1.785156 25.21875 1.195312 C 23.839844 0.632812 21.109375 0 20.058594 0 L 19.722656 0 Z M 19.722656 4.019531 "/>
<path style=" stroke:none;fill-rule:evenodd;fill:#0d914f;fill-opacity:1;" d="M 18.398438 11.195312 L 18.398438 12.945312 L 20.773438 12.945312 C 23.503906 12.945312 24.0625 13.027344 25.058594 13.546875 C 26.234375 14.160156 27.269531 15.480469 27.621094 16.832031 C 27.863281 17.695312 27.90625 19.117188 27.730469 20 C 27.296875 22.214844 25.945312 23.582031 23.460938 24.332031 L 23.257812 24.382812 L 23.257812 14.285156 L 19.722656 14.285156 L 19.722656 24.367188 L 18.996094 24.394531 L 18.28125 24.417969 L 17.582031 25.445312 C 17.203125 26.007812 16.65625 26.757812 16.363281 27.117188 C 16.074219 27.472656 15.835938 27.785156 15.835938 27.8125 C 15.835938 27.847656 17.65625 27.855469 19.882812 27.839844 C 23.910156 27.804688 23.917969 27.804688 24.777344 27.570312 C 25.871094 27.269531 27.164062 26.597656 28.089844 25.847656 C 29.628906 24.597656 30.601562 23.042969 31.085938 21.019531 C 31.289062 20.179688 31.324219 19.855469 31.324219 18.707031 C 31.324219 16.910156 31.015625 15.554688 30.265625 14.0625 C 29.265625 12.0625 27.339844 10.5 24.980469 9.769531 C 24.195312 9.527344 24.140625 9.527344 21.296875 9.484375 L 18.398438 9.445312 Z M 18.398438 11.195312 "/>
<path style=" stroke:none;fill-rule:evenodd;fill:#0d914f;fill-opacity:1;" d="M 3.558594 29.4375 C 6.105469 32.792969 9.488281 35.195312 13.226562 36.292969 C 14.226562 36.582031 15.542969 36.847656 16.390625 36.929688 L 17.070312 36.992188 L 17.070312 33.507812 L 16.3125 33.402344 C 14.253906 33.105469 12.058594 32.277344 10.371094 31.132812 L 9.65625 30.652344 L 8.304688 30.597656 C 6.449219 30.535156 5.300781 30.257812 4.105469 29.597656 C 3.46875 29.242188 3.390625 29.222656 3.558594 29.4375 Z M 3.558594 29.4375 "/>
<path style=" stroke:none;fill-rule:nonzero;fill:#0d914f;fill-opacity:1;" d="M 46.332031 17.929688 C 45.039062 17.929688 43.972656 17.839844 43.140625 17.660156 C 42.308594 17.484375 41.65625 17.160156 41.1875 16.683594 C 40.714844 16.207031 40.390625 15.519531 40.203125 14.625 C 40.015625 13.730469 39.921875 12.5625 39.921875 11.128906 L 39.921875 4.257812 L 41.578125 4.257812 L 41.578125 11.128906 C 41.578125 12.117188 41.613281 12.9375 41.683594 13.585938 C 41.753906 14.234375 41.878906 14.757812 42.070312 15.148438 C 42.261719 15.535156 42.535156 15.828125 42.886719 16.019531 C 43.242188 16.210938 43.699219 16.335938 44.261719 16.394531 C 44.824219 16.453125 45.519531 16.480469 46.332031 16.480469 L 49.460938 16.480469 C 50.28125 16.480469 50.972656 16.453125 51.53125 16.394531 C 52.097656 16.335938 52.550781 16.210938 52.90625 16.019531 C 53.257812 15.828125 53.53125 15.535156 53.722656 15.148438 C 53.910156 14.757812 54.039062 14.234375 54.109375 13.585938 C 54.179688 12.9375 54.214844 12.117188 54.214844 11.128906 L 54.214844 4.257812 L 55.871094 4.257812 L 55.871094 11.128906 C 55.871094 12.5625 55.777344 13.730469 55.589844 14.625 C 55.402344 15.519531 55.078125 16.207031 54.605469 16.683594 C 54.136719 17.160156 53.484375 17.484375 52.652344 17.660156 C 51.820312 17.839844 50.753906 17.929688 49.460938 17.929688 Z M 46.332031 17.929688 "/>
<path style=" stroke:none;fill-rule:nonzero;fill:#0d914f;fill-opacity:1;" d="M 64.527344 17.648438 L 64.527344 4.257812 L 66.183594 4.257812 L 66.183594 17.648438 Z M 64.527344 17.648438 "/>
<path style=" stroke:none;fill-rule:nonzero;fill:#0d914f;fill-opacity:1;" d="M 74.773438 13.1875 L 74.773438 11.789062 L 81.402344 11.789062 L 81.402344 13.1875 Z M 74.773438 13.1875 "/>
<path style=" stroke:none;fill-rule:nonzero;fill:#0d914f;fill-opacity:1;" d="M 90.023438 17.648438 L 90.023438 4.257812 L 99.863281 4.257812 C 101.15625 4.257812 102.222656 4.335938 103.054688 4.492188 C 103.890625 4.648438 104.539062 4.953125 105.011719 5.402344 C 105.480469 5.855469 105.804688 6.511719 105.996094 7.371094 C 106.179688 8.230469 106.273438 9.367188 106.273438 10.777344 L 106.273438 11.128906 C 106.273438 12.496094 106.179688 13.605469 105.996094 14.460938 C 105.804688 15.320312 105.480469 15.980469 105.011719 16.441406 C 104.539062 16.902344 103.890625 17.222656 103.054688 17.394531 C 102.222656 17.5625 101.15625 17.648438 99.863281 17.648438 Z M 91.679688 16.203125 L 99.863281 16.203125 C 100.894531 16.203125 101.71875 16.152344 102.347656 16.054688 C 102.976562 15.957031 103.453125 15.738281 103.78125 15.410156 C 104.105469 15.078125 104.332031 14.574219 104.445312 13.890625 C 104.558594 13.210938 104.617188 12.289062 104.617188 11.128906 L 104.617188 10.777344 C 104.617188 9.8125 104.585938 9.019531 104.511719 8.390625 C 104.445312 7.761719 104.316406 7.265625 104.128906 6.902344 C 103.941406 6.539062 103.671875 6.273438 103.316406 6.101562 C 102.964844 5.929688 102.507812 5.820312 101.941406 5.773438 C 101.378906 5.726562 100.683594 5.703125 99.863281 5.703125 L 91.679688 5.703125 Z M 91.679688 16.203125 "/>
<path style=" stroke:none;fill-rule:nonzero;fill:#0d914f;fill-opacity:1;" d="M 125.691406 14.667969 C 125.691406 15.417969 125.582031 16.007812 125.363281 16.4375 C 125.136719 16.867188 124.804688 17.183594 124.347656 17.378906 C 123.890625 17.578125 123.3125 17.703125 122.609375 17.761719 C 121.902344 17.8125 121.066406 17.839844 120.09375 17.839844 C 118.980469 17.839844 118.039062 17.785156 117.265625 17.671875 C 116.492188 17.558594 115.867188 17.324219 115.394531 16.972656 C 114.917969 16.625 114.574219 16.09375 114.355469 15.390625 C 114.140625 14.6875 114.035156 13.75 114.035156 12.574219 C 114.035156 11.433594 114.140625 10.523438 114.347656 9.835938 C 114.558594 9.148438 114.898438 8.636719 115.371094 8.285156 C 115.839844 7.933594 116.464844 7.703125 117.230469 7.585938 C 117.996094 7.472656 118.9375 7.410156 120.046875 7.410156 C 121.320312 7.410156 122.371094 7.503906 123.210938 7.683594 C 124.042969 7.863281 124.664062 8.207031 125.078125 8.710938 C 125.484375 9.21875 125.691406 9.960938 125.691406 10.933594 L 125.691406 13.089844 L 115.699219 13.089844 C 115.707031 13.835938 115.757812 14.429688 115.855469 14.875 C 115.953125 15.324219 116.148438 15.660156 116.441406 15.886719 C 116.734375 16.113281 117.171875 16.265625 117.757812 16.335938 C 118.34375 16.410156 119.121094 16.449219 120.09375 16.449219 C 120.96875 16.449219 121.675781 16.429688 122.210938 16.394531 C 122.75 16.359375 123.15625 16.28125 123.433594 16.164062 C 123.714844 16.042969 123.90625 15.863281 124 15.625 C 124.097656 15.386719 124.148438 15.070312 124.148438 14.667969 Z M 120.046875 8.808594 C 119.113281 8.808594 118.355469 8.84375 117.78125 8.910156 C 117.210938 8.984375 116.777344 9.117188 116.476562 9.320312 C 116.175781 9.519531 115.972656 9.816406 115.867188 10.210938 C 115.761719 10.609375 115.707031 11.128906 115.699219 11.773438 L 124.105469 11.773438 L 124.105469 10.933594 C 124.105469 10.515625 124.058594 10.171875 123.964844 9.894531 C 123.867188 9.617188 123.683594 9.398438 123.40625 9.238281 C 123.128906 9.082031 122.722656 8.96875 122.183594 8.902344 C 121.648438 8.839844 120.933594 8.808594 120.046875 8.808594 Z M 120.046875 8.808594 "/>
<path style=" stroke:none;fill-rule:nonzero;fill:#0d914f;fill-opacity:1;" d="M 132.554688 17.648438 L 137.648438 12.539062 L 132.796875 7.605469 L 135.007812 7.605469 L 138.792969 11.488281 L 142.496094 7.605469 L 144.707031 7.605469 L 139.855469 12.53125 L 144.949219 17.648438 L 142.738281 17.648438 L 138.753906 13.449219 L 134.765625 17.648438 Z M 132.554688 17.648438 "/>
<path style=" stroke:none;fill-rule:nonzero;fill:#0d914f;fill-opacity:1;" d="M 45.929688 35.9375 L 39.414062 22.542969 L 41.320312 22.542969 L 47.035156 34.515625 L 52.421875 22.542969 L 54.351562 22.542969 L 59.738281 34.515625 L 64.898438 22.542969 L 66.804688 22.542969 L 60.839844 35.9375 L 58.632812 35.9375 L 53.386719 24.226562 L 48.140625 35.9375 Z M 45.929688 35.9375 "/>
<path style=" stroke:none;fill-rule:nonzero;fill:#0d914f;fill-opacity:1;" d="M 66.832031 35.9375 L 74.566406 22.542969 L 76.773438 22.542969 L 84.507812 35.9375 L 82.570312 35.9375 L 80.917969 32.867188 L 70.421875 32.867188 L 68.765625 35.9375 Z M 71.253906 31.472656 L 80.089844 31.472656 L 75.671875 23.660156 Z M 71.253906 31.472656 "/>
<path style=" stroke:none;fill-rule:nonzero;fill:#0d914f;fill-opacity:1;" d="M 86.71875 35.9375 L 86.71875 22.542969 L 88.371094 22.542969 L 88.371094 34.542969 L 98.867188 34.542969 L 98.867188 35.9375 Z M 86.71875 35.9375 "/>
<path style=" stroke:none;fill-rule:nonzero;fill:#0d914f;fill-opacity:1;" d="M 101.078125 35.9375 L 101.078125 22.542969 L 102.734375 22.542969 L 102.734375 34.542969 L 113.226562 34.542969 L 113.226562 35.9375 Z M 101.078125 35.9375 "/>
<path style=" stroke:none;fill-rule:nonzero;fill:#0d914f;fill-opacity:1;" d="M 115.4375 35.9375 L 115.4375 22.542969 L 128.449219 22.542969 L 128.449219 23.941406 L 117.09375 23.941406 L 117.09375 28.402344 L 127.976562 28.402344 L 127.976562 29.796875 L 117.09375 29.796875 L 117.09375 34.542969 L 128.695312 34.542969 L 128.695312 35.9375 Z M 115.4375 35.9375 "/>
<path style=" stroke:none;fill-rule:nonzero;fill:#0d914f;fill-opacity:1;" d="M 136.683594 35.9375 L 136.683594 23.941406 L 130.054688 23.941406 L 130.054688 22.542969 L 144.96875 22.542969 L 144.96875 23.941406 L 138.339844 23.941406 L 138.339844 35.9375 Z M 136.683594 35.9375 "/>
</g>
</svg>